<?xml version="1.0" encoding="UTF-8"?><svg xmlns="http://www.w3.org/2000/svg" viewBox="0 0 671.62 118.08"><defs><style>.d{fill:#00b4d0;}.e{fill:#00a2bc;}.f{fill:#231f20;}.g{fill:#3bc4e5;}</style></defs><g id="a"/><g id="b"><g id="c"><g><path class="e" d="M118.08,31.38H43.35c-6.61,0-11.98,5.36-11.98,11.98V118.08c-17.32,0-31.37-14.05-31.37-31.38V31.38C0,14.05,14.05,0,31.37,0h55.33c17.33,0,31.38,14.05,31.38,31.38Z"/><path class="g" d="M86.7,118.07h-.1v-19.25c0-6.75,5.47-12.22,12.22-12.22h19.25v.09c0,17.33-14.05,31.38-31.38,31.38Z"/><path class="d" d="M118.08,43.35v31.38h-31.38c-6.61,0-11.98,5.36-11.98,11.97v31.38h-31.37V55.33c0-6.61,5.36-11.98,11.97-11.98h62.75Z"/></g><g><path class="f" d="M167.61,24.83h43.42v12.85h-28.88v15.64h25.29v12.65h-25.29v14.64h29.77v12.85h-44.31V24.83Z"/><path class="f" d="M280.24,78.76c-5.83,8.94-16.04,14.68-28.19,14.68-19.05,0-33.63-15.45-33.63-34.31s14.58-34.4,33.63-34.4c12.05,0,22.06,5.64,27.89,14.19l-11.57,7.97c-3.59-5.35-9.33-8.75-16.33-8.75-11.18,0-19.34,9.33-19.34,20.99s8.16,20.9,19.34,20.9c7,0,13.12-3.79,16.72-9.23l11.47,7.97Z"/><path class="f" d="M288.83,69.62c0-14.38,10.59-23.52,23.52-23.52s23.62,9.14,23.62,23.52-10.79,23.62-23.62,23.62-23.52-9.33-23.52-23.62Zm33.82,0c0-6.22-4.57-10.3-10.3-10.3s-10.21,4.08-10.21,10.3,4.67,10.4,10.21,10.4,10.3-4.08,10.3-10.4Z"/><path class="f" d="M386.92,68.46v24.78h-13.49v-25.27c-.11-5.84-3.61-8.75-7.5-8.75-4.18,0-7.87,2.33-7.87,9.23l-.09,24.78h-13.41V47.08h13.51v6.61c2.24-4.76,6.9-7.48,11.86-7.48,7.19,0,12.05,2.62,14.58,7.96,4.47-7.09,10.3-8.07,13.61-8.07,10.89,0,17.49,6.91,17.49,20.61v26.53h-13.35l-.06-24.98c0-5.93-3.5-9.04-7.48-9.04-4.27,0-7.78,2.62-7.78,9.23Z"/><path class="f" d="M438.71,47.08v5.64c2.23-4.18,7.58-6.61,13.32-6.61,11.66,0,21.97,9.14,21.97,23.52s-10.3,23.82-21.97,23.82c-5.73,0-11.08-2.33-13.32-6.51v27.8h-13.41V47.08h13.41Zm10.79,33.63c5.83,0,10.5-4.18,10.5-10.79s-4.76-10.98-10.5-10.98-10.5,4.37-10.5,10.98,5.05,10.79,10.5,10.79Z"/><path class="f" d="M482.02,69.48c0-14.38,10.59-23.52,23.52-23.52s23.62,9.14,23.62,23.52-10.79,23.62-23.62,23.62-23.52-9.33-23.52-23.62Zm33.82,0c0-6.22-4.57-10.3-10.3-10.3s-10.21,4.08-10.21,10.3,4.67,10.4,10.21,10.4,10.3-4.08,10.3-10.4Z"/><path class="f" d="M551.64,73.71c-13.7-3.6-13.61-10.59-13.61-14.77,0-6.71,8.16-12.93,17.69-12.93,8.94,0,18.66,3.89,18.66,15.07h-12.73c-.1-3.4-2.91-3.99-5.15-3.99-3.01,0-4.86,1.36-4.76,3.4,.1,1.46,1.26,2.72,3.99,3.4l7.68,2.05c10.98,3.1,12.34,10.2,12.34,13.22,0,9.62-10.11,14.19-19.63,14.19s-18.95-5.54-18.95-15.65h12.64c.1,2.63,2.91,5.25,6.7,5.25,3.01-.1,5.54-1.46,5.54-3.79,0-1.94-1.07-3.01-4.47-3.89l-5.93-1.55Z"/><path class="f" d="M626.95,84.11c-4.67,6.8-12.92,9.23-20.7,9.23-12.92,0-23.71-9.53-23.71-23.82s10.79-23.52,23.71-23.52,23.23,9.62,23.23,23.91c0,1.17-.1,3.01-.19,4.18h-33.24c.78,5.25,6.32,7.58,11.18,7.58,3.79,0,7.68-1.26,9.91-4.28l9.81,6.71Zm-11.08-18.47c-.78-5.54-5.64-7.77-9.52-7.77s-9.04,1.94-10.11,7.77h19.63Z"/><path class="f" d="M650.73,93.34h-13.23V46.98h13.51v10.98c2.33-8.46,8.17-11.96,12.83-11.96,3.21,0,5.54,.58,7.78,1.65l-2.43,12.15c-2.43-1.17-4.67-1.37-6.9-1.37-7.78,0-11.28,6.03-11.28,18.08l-.28,16.81Z"/></g></g></g></svg>